<?xml version="1.0" standalone="no"?>
        <!DOCTYPE svg PUBLIC "-//W3C//DTD SVG 1.1//EN" 
        "http://www.w3.org/Graphics/SVG/1.1/DTD/svg11.dtd"> <svg xmlns="http://www.w3.org/2000/svg" viewBox="0 0 256 256" id="IconChangeColor" height="232" width="232"><rect width="256" height="256" fill="none"></rect><path d="M152,208V160a8,8,0,0,0-8-8H112a8,8,0,0,0-8,8v48a8,8,0,0,1-8,8H48a8,8,0,0,1-8-8V115.5a8.3,8.3,0,0,1,2.6-5.9l80-72.7a8,8,0,0,1,10.8,0l80,72.7a8.3,8.3,0,0,1,2.6,5.9V208a8,8,0,0,1-8,8H160A8,8,0,0,1,152,208Z" fill="none" stroke="#000000" stroke-linecap="round" stroke-linejoin="round" stroke-width="10" id="mainIconPathAttribute"></path></svg> 