<svg class="IconWrapper-module--icon__2Xg1f UserMenu-module--icon__2-Edf IconWrapper-module--normal__2pGtD" viewBox="0 0 24 24" xmlns="http://www.w3.org/2000/svg" xmlns:xlink="http://www.w3.org/1999/xlink" focusable="false"><path d="M14.2929 20H4.754C2.15096 20 0 17.7022 0 15V5C0 2.29844 2.15126 0 4.754 0H19.246C21.8481 0 24 2.29879 24 5V15C24 17.7019 21.8484 20 19.246 20H19V24.7071L14.2929 20ZM18 19H19.246C21.2808 19 23 17.1638 23 15V5C23 2.83686 21.2805 1 19.246 1H4.754C2.71888 1 1 2.83648 1 5V15C1 17.1642 2.71854 19 4.754 19H14.7071L18 22.2929V19ZM8 11C8.55229 11 9 10.5523 9 10C9 9.44771 8.55229 9 8 9C7.44772 9 7 9.44771 7 10C7 10.5523 7.44772 11 8 11ZM13 10C13 10.5523 12.5523 11 12 11C11.4477 11 11 10.5523 11 10C11 9.44771 11.4477 9 12 9C12.5523 9 13 9.44771 13 10ZM16 11C16.5523 11 17 10.5523 17 10C17 9.44771 16.5523 9 16 9C15.4477 9 15 9.44771 15 10C15 10.5523 15.4477 11 16 11Z"></path></svg>