<svg class="IconWrapper-module--icon__3Axc5 IconWrapper-module--normal__61od4" viewBox="0 0 24 24" xmlns="http://www.w3.org/2000/svg" xmlns:xlink="http://www.w3.org/1999/xlink" focusable="false"><path d="M13.133 0a1.2 1.2 0 011.194 1.077l.006.123v1.816l.346.097c.487.146.96.333 1.415.557l.338.175.305.174 1.278-1.278a1.2 1.2 0 011.487-.167l.113.08.097.087 1.72 1.721a1.2 1.2 0 01.088 1.6l-.087.097-1.325 1.324.174.327c.174.342.326.695.455 1.056l.122.364.102.353H22.8a1.2 1.2 0 011.176.958l.018.12.006.122v2.434a1.2 1.2 0 01-1.077 1.193l-.123.007-1.839-.001-.105.366a9.219 9.219 0 01-.42 1.092l-.171.35-.178.328 1.344 1.299a1.2 1.2 0 01.194 1.484l-.078.114-.086.099-1.69 1.75a1.2 1.2 0 01-1.598.116l-.099-.086-1.373-1.326-.305.173a9.23 9.23 0 01-1.371.6l-.358.116-.334.092V22.8a1.2 1.2 0 01-.958 1.176l-.119.018-.123.006H10.7a1.2 1.2 0 01-1.194-1.077L9.5 22.8v-1.861l-.334-.1a9.22 9.22 0 01-1.041-.404l-.335-.163-.307-.164-1.324 1.325a1.2 1.2 0 01-1.487.167l-.113-.08-.097-.087-1.72-1.721a1.2 1.2 0 01-.088-1.6l.088-.097 1.277-1.278-.165-.288a9.232 9.232 0 01-.604-1.351l-.117-.353-.095-.329H1.2a1.2 1.2 0 01-1.176-.957l-.018-.12L0 13.217v-2.434A1.2 1.2 0 011.077 9.59l.123-.007h1.838l.094-.327c.11-.354.24-.701.392-1.04l.157-.334.158-.302-1.303-1.257a1.2 1.2 0 01-.193-1.484l.078-.114.086-.099 1.69-1.75a1.2 1.2 0 011.598-.116l.099.086 1.274 1.23.293-.172a9.235 9.235 0 011.352-.622l.353-.121.334-.1V1.2c0-.519.331-.967.823-1.134l.126-.036.122-.022L10.7 0h2.433zm-2.4.999l-.06.003a.2.2 0 00-.164.14L10.5 1.2v2.646l-.386.09a8.223 8.223 0 00-2.415.987l-.315.202-.335.226-1.85-1.785a.2.2 0 00-.231-.034l-.052.039-1.69 1.75a.2.2 0 00-.034.231l.039.052 1.868 1.802-.205.341a8.229 8.229 0 00-.885 2.077l-.091.368-.087.391H1.2a.2.2 0 00-.193.147L1 10.783v2.434a.2.2 0 00.147.193l.053.007h2.63l.088.39a8.22 8.22 0 00.957 2.413l.197.316.223.34-1.846 1.846a.2.2 0 00-.038.231l.038.052 1.72 1.72a.2.2 0 00.231.038l.052-.037 1.876-1.877.337.207a8.232 8.232 0 002.08.913l.37.095.386.09L10.5 22.8a.2.2 0 00.147.193L10.7 23h2.433a.2.2 0 00.193-.147l.007-.053v-2.617l.397-.084a8.224 8.224 0 002.447-.948l.32-.198.334-.216 1.938 1.871a.2.2 0 00.231.034l.051-.039 1.69-1.75a.2.2 0 00.034-.232l-.038-.05-1.919-1.854.214-.343c.43-.69.756-1.44.967-2.226l.083-.34.087-.391H22.8a.2.2 0 00.193-.147l.007-.053v-2.434a.2.2 0 00-.147-.193l-.053-.007h-2.63l-.088-.39a8.222 8.222 0 00-.853-2.233l-.173-.295-.207-.337 1.877-1.876a.2.2 0 00.037-.23l-.037-.053-1.721-1.72a.2.2 0 00-.231-.038l-.052.037-1.846 1.847-.34-.223a8.234 8.234 0 00-2.432-1.083l-.374-.088-.396-.084V1.2a.2.2 0 00-.147-.193L13.133 1l-2.4-.001zM12 7.07a4.929 4.929 0 110 9.857 4.929 4.929 0 010-9.857zm0 1a3.929 3.929 0 100 7.857 3.929 3.929 0 000-7.857z"></path></svg>